Coordinates
version=1
nRows=10
nColumns=40
inDegrees=yes

Units are S.I. units (second, meters, Newtons, ...)
Angles are in degrees.

endheader
time	pelvis_tilt	pelvis_list	pelvis_rotation	pelvis_tx	pelvis_ty	pelvis_tz	hip_flexion_r	hip_adduction_r	hip_rotation_r	knee_angle_r	knee_angle_r_beta	ankle_angle_r	subtalar_angle_r	mtp_angle_r	hip_flexion_l	hip_adduction_l	hip_rotation_l	knee_angle_l	knee_angle_l_beta	ankle_angle_l	subtalar_angle_l	mtp_angle_l	lumbar_extension	lumbar_bending	lumbar_rotation	arm_flex_r	arm_add_r	arm_rot_r	elbow_flex_r	pro_sup_r	wrist_flex_r	wrist_dev_r	arm_flex_l	arm_add_l	arm_rot_l	elbow_flex_l	pro_sup_l	wrist_flex_l	wrist_dev_l
      1.96000000	     -2.12536446	     -5.42703461	     -0.87908737	      1.07845096	      0.93589916	      0.41213430	     29.04021501	     -4.63041649	     -4.76710348	     54.02799489	     54.02799489	      2.09333155	     -9.13468490	     -1.68241991	     12.55710029	     -6.32937720	     -8.54554606	     22.67090242	     22.67090242	     14.89416292	     -7.76663923	      0.81588024	    -11.31059379	      5.58407647	      0.34075870	     -2.59083341	    -15.43034064	     -4.23986094	     29.42388717	     46.68040068	      0.00000000	      0.00000000	     19.39043896	    -18.88148593	      0.15497858	     56.55021883	     46.28886653	      0.00000000	      0.00000000
      1.97400000	     -2.41221336	     -5.52341148	     -1.36137656	      1.07720445	      0.93617615	      0.41281406	     29.37586115	     -4.31114301	     -4.90573058	     50.44836892	     50.44836892	      2.24014372	     -8.19956836	     -1.49970356	     12.16344813	     -6.45014572	     -8.87507765	     22.10050591	     22.10050591	     14.99252381	     -7.82866704	      0.75558180	    -11.08815481	      5.56396675	      0.21553632	     -3.13228719	    -15.26283856	     -4.35021620	     29.53957664	     46.67400873	      0.00000000	      0.00000000	     20.13077119	    -19.32059348	     -0.11859201	     57.09458326	     46.32696095	      0.00000000	      0.00000000
      1.98800000	     -2.42328628	     -5.46239613	     -1.85736816	      1.07627612	      0.93679635	      0.41340056	     29.11424862	     -4.21668980	     -5.19312516	     46.25970621	     46.25970621	      1.96195338	     -6.76930293	     -2.89709404	     11.20428058	     -6.30970739	     -9.18557658	     21.02881087	     21.02881087	     14.56830705	     -8.14397151	     -0.15233028	    -11.28103386	      5.40206046	      0.40970308	     -4.27038547	    -15.15394349	     -5.47230702	     31.06166743	     46.65014015	      0.00000000	      0.00000000	     20.52673119	    -19.32851923	     -1.06838075	     58.97214747	     46.45958362	      0.00000000	      0.00000000
      2.00200000	     -2.70520418	     -5.59447578	     -2.31791098	      1.07509836	      0.93685522	      0.41429977	     29.00098315	     -3.77596390	     -5.49955558	     41.74899806	     41.74899806	      1.99154541	     -5.35562921	     -2.59225643	     10.85572750	     -6.47884432	     -9.48107949	     20.56260726	     20.56260726	     14.64586706	     -8.26854660	     -0.28442609	    -11.09144499	      5.47922414	      0.31658570	     -4.58609968	    -14.97568971	     -5.60268955	     31.16934336	     46.64604624	      0.00000000	      0.00000000	     21.13730723	    -19.71042551	     -1.28990089	     59.38390832	     46.49080367	      0.00000000	      0.00000000
      2.01600000	     -3.00788511	     -5.58229057	     -2.82245718	      1.07401512	      0.93669850	      0.41535600	     28.75674993	     -3.44535814	     -5.84459663	     36.95464571	     36.95464571	      1.91242193	     -3.51821083	     -2.21492405	     10.48608880	     -6.49603242	     -9.86007667	     20.03025168	     20.03025168	     14.73318583	     -8.36375919	     -0.43718165	    -10.87123596	      5.35966949	      0.34497847	     -4.89448761	    -14.72391082	     -5.71993744	     31.28872108	     46.64127521	      0.00000000	      0.00000000	     21.74132778	    -20.01298252	     -1.52766342	     59.92805714	     46.52393720	      0.00000000	      0.00000000
      2.03000000	     -3.12410656	     -5.59464864	     -3.23535998	      1.07323693	      0.93673888	      0.41630902	     27.98787106	     -3.13423866	     -6.52334096	     31.74028402	     31.74028402	      1.79545605	     -1.06540925	     -1.89235033	      9.84732434	     -6.50547660	    -10.16124163	     19.37871819	     19.37871819	     14.73260783	     -8.40768943	     -0.69049576	    -10.88569398	      5.34798175	      0.43442666	     -5.21227364	    -14.60737751	     -5.95805517	     31.47205018	     46.64059127	      0.00000000	      0.00000000	     22.21204915	    -20.11932947	     -1.80357273	     60.66607478	     46.56305854	      0.00000000	      0.00000000
      2.04400000	     -3.16009843	     -5.37843521	     -3.65692511	      1.07270180	      0.93650450	      0.41727342	     26.99560232	     -3.05445347	     -7.46420650	     26.37053034	     26.37053034	      0.88881423	      1.92010882	     -3.47198866	      8.97946751	     -6.17647505	    -10.31180628	     18.38375087	     18.38375087	     13.77445359	     -9.18998213	     -3.00307743	    -11.00726585	      5.05867424	      0.36880276	     -5.58767307	    -14.15738452	     -8.12184531	     32.50058454	     46.67898945	      0.00000000	      0.00000000	     22.15018411	    -20.16975362	     -3.16330899	     62.58736612	     46.74501449	      0.00000000	      0.00000000
      2.05800000	     -3.34213768	     -5.30219505	     -4.03607841	      1.07221305	      0.93597088	      0.41850417	     26.07282944	     -2.63100316	     -8.21077598	     21.16168756	     21.16168756	      0.50987125	      4.46172963	     -2.20656853	      8.52481637	     -6.12952451	    -10.62417512	     17.97767091	     17.97767091	     13.94691445	     -9.19877266	     -3.21195328	    -10.84885571	      4.95597765	      0.49216369	     -5.67835553	    -13.95305436	     -8.22770047	     32.44307541	     46.67945779	      0.00000000	      0.00000000	     22.59908526	    -20.28401757	     -3.21345189	     62.97549315	     46.76467652	      0.00000000	      0.00000000
      2.07200000	     -3.47853543	     -5.11506968	     -4.38126578	      1.07193987	      0.93526800	      0.41983321	     25.14877114	     -2.31027582	     -9.12423970	     16.42454880	     16.42454880	      0.11708837	      7.14001340	     -0.59640182	      8.01999897	     -5.96557989	    -10.97355067	     17.57194934	     17.57194934	     14.07725525	     -9.15483152	     -3.51675344	    -10.72833205	      4.74173940	      0.59325726	     -5.72945549	    -13.68905723	     -8.35582896	     32.45395691	     46.67919335	      0.00000000	      0.00000000	     22.94367433	    -20.35525267	     -3.28669693	     63.43779373	     46.78594438	      0.00000000	      0.00000000
      2.08600000	     -3.50064224	     -4.85081802	     -4.69512298	      1.07190130	      0.93459371	      0.42109412	     24.48101204	     -2.24244031	    -10.76310850	     13.03896011	     13.03896011	      1.17446366	     10.76070874	      4.67132120	      7.31400639	     -5.68434467	    -11.33061896	     16.98488352	     16.98488352	     13.77382125	     -9.25942228	     -4.87654659	    -10.72974184	      4.43025337	      0.56445273	     -5.58167125	    -13.32796240	     -9.26567416	     32.50891953	     46.69346892	      0.00000000	      0.00000000	     22.99899199	    -20.46630712	     -3.65448400	     64.43454400	     46.86464374	      0.00000000	      0.00000000
